<svg xmlns="http://www.w3.org/2000/svg" xmlns:xlink="http://www.w3.org/1999/xlink" width="440" zoomAndPan="magnify" viewBox="0 0 330 165.000002" height="220" preserveAspectRatio="xMidYMid meet" version="1.0"><defs><g/><clipPath id="ca9ae63624"><path d="M 0.992188 0 L 329.003906 0 L 329.003906 164.007812 L 0.992188 164.007812 Z M 0.992188 0 " clip-rule="nonzero"/></clipPath><clipPath id="12c947482e"><path d="M 142.585938 6.964844 L 161.148438 6.964844 L 161.148438 38.722656 L 142.585938 38.722656 Z M 142.585938 6.964844 " clip-rule="nonzero"/></clipPath><clipPath id="ed2fa243f0"><path d="M 142.589844 121.589844 L 161.15625 121.589844 L 161.15625 163.488281 L 142.589844 163.488281 Z M 142.589844 121.589844 " clip-rule="nonzero"/></clipPath><clipPath id="6958601a19"><path d="M 178.546875 72.714844 L 219.667969 72.714844 L 219.667969 91.277344 L 178.546875 91.277344 Z M 178.546875 72.714844 " clip-rule="nonzero"/></clipPath></defs><g clip-path="url(#ca9ae63624)"><path fill="#ffffff" d="M 0.992188 0 L 329.007812 0 L 329.007812 164.007812 L 0.992188 164.007812 Z M 0.992188 0 " fill-opacity="1" fill-rule="nonzero"/><path fill="#000000" d="M 0.992188 0 L 329.007812 0 L 329.007812 164.007812 L 0.992188 164.007812 Z M 0.992188 0 " fill-opacity="1" fill-rule="nonzero"/></g><g fill="#37b7ff" fill-opacity="1"><g transform="translate(67.648756, 153.68833)"><g><path d="M 18.453125 0 L 18.453125 -145.625 L 49.84375 -145.625 C 105.351562 -145.625 133.109375 -121.554688 133.109375 -73.421875 C 133.109375 -49.910156 126.375 -31.796875 112.90625 -19.078125 C 99.4375 -6.359375 79.710938 0 53.734375 0 Z M 24.8125 -5.53125 L 53.125 -5.53125 C 102.070312 -5.53125 126.546875 -28.160156 126.546875 -73.421875 C 126.546875 -95.847656 120.359375 -112.566406 107.984375 -123.578125 C 95.609375 -134.585938 76.566406 -140.09375 50.859375 -140.09375 L 24.8125 -140.09375 Z M 24.8125 -5.53125 "/></g></g></g><g clip-path="url(#12c947482e)"><path fill="#000000" d="M 142.585938 38.722656 L 142.585938 6.960938 L 161.148438 6.960938 L 161.148438 38.722656 Z M 142.585938 38.722656 " fill-opacity="1" fill-rule="nonzero"/></g><g clip-path="url(#ed2fa243f0)"><path fill="#000000" d="M 142.589844 163.488281 L 142.589844 121.570312 L 161.15625 121.570312 L 161.15625 163.488281 Z M 142.589844 163.488281 " fill-opacity="1" fill-rule="nonzero"/></g><g clip-path="url(#6958601a19)"><path fill="#000000" d="M 178.546875 72.714844 L 219.667969 72.714844 L 219.667969 91.277344 L 178.546875 91.277344 Z M 178.546875 72.714844 " fill-opacity="1" fill-rule="nonzero"/></g><g fill="#b7e3fe" fill-opacity="1"><g transform="translate(130.422503, 155.657208)"><g><path d="M 18.453125 0 L 18.453125 -145.625 L 24.8125 -145.625 L 24.8125 -77.125 L 117.9375 -77.125 L 117.9375 -145.625 L 124.296875 -145.625 L 124.296875 0 L 117.9375 0 L 117.9375 -71.375 L 24.8125 -71.375 L 24.8125 0 Z M 18.453125 0 "/></g></g></g></svg>