<?xml version="1.0" encoding="UTF-8"?>
<svg version="1.1" xmlns="http://www.w3.org/2000/svg" width="2048" height="2048">
<path d="M0 0 C675.84 0 1351.68 0 2048 0 C2048 675.84 2048 1351.68 2048 2048 C1372.16 2048 696.32 2048 0 2048 C0 1372.16 0 696.32 0 0 Z " fill="#000000" transform="translate(0,0)"/>
<path d="M0 0 C15.18 0 30.36 0 46 0 C46 163.02 46 326.04 46 494 C267.43 494 488.86 494 717 494 C717 330.98 717 167.96 717 0 C731.85 0 746.7 0 762 0 C762 346.5 762 693 762 1050 C747.15 1050 732.3 1050 717 1050 C717 880.05 717 710.1 717 535 C495.24 535 273.48 535 45 535 C45 704.62 45 874.24 45 1049 C30.15 1049 15.3 1049 0 1049 C0 702.83 0 356.66 0 0 Z " fill="#B6E2FD" transform="translate(852,360)"/>
<path d="M0 0 C314.88637441 0 314.88637441 0 386.6875 10.125 C388.38652466 10.36259033 388.38652466 10.36259033 390.11987305 10.60498047 C391.17730713 10.75854004 392.23474121 10.91209961 393.32421875 11.0703125 C394.6867981 11.26778076 394.6867981 11.26778076 396.0769043 11.46923828 C399.75425503 12.13695402 403.37411233 13.09352808 407 14 C407 26.87 407 39.74 407 53 C399.32026193 52.40925092 392.15287408 51.78053027 384.62646484 50.56201172 C273.00341592 33.26321957 157.727102 39.53457944 46 39 C46 359.43 46 679.86 46 1010 C184.67233905 1012.4312598 184.67233905 1012.4312598 327.875 1006.125 C329.79392306 1005.94501797 331.71295279 1005.76617008 333.63208008 1005.58837891 C338.2485669 1005.15674874 342.86305751 1004.70732305 347.47698975 1004.24926758 C349.87049936 1004.01279436 352.26443751 1003.78153504 354.65869141 1003.55273438 C358.66923924 1003.16926795 362.67858503 1002.77520603 366.6875 1002.375 C368.3588501 1002.20895264 368.3588501 1002.20895264 370.06396484 1002.03955078 C376.78163739 1001.33545584 383.37027428 1000.28403655 390 999 C392.12385242 998.61855422 394.24860741 998.24202119 396.375 997.875 C397.80972656 997.62363281 397.80972656 997.62363281 399.2734375 997.3671875 C402 997 402 997 407 997 C407 1010.53 407 1024.06 407 1038 C378.97391137 1043.09565248 350.77547593 1045.7346746 322.375 1047.6875 C321.51758209 1047.74825714 320.66016418 1047.80901428 319.77676392 1047.87161255 C214.47642923 1055.22514683 100.7482507 1050 0 1050 C0 703.5 0 357 0 0 Z " fill="#36B5FD" transform="translate(398,352)"/>
<path d="M0 0 C10.14229206 3.80335952 19.93188484 7.59402058 29.6875 12.1875 C30.28328857 12.46657196 30.87907715 12.74564392 31.49291992 13.03317261 C69.42412543 30.81483988 106.52538956 52.81467194 137.3046875 81.515625 C139.37480293 83.4237314 141.46892245 85.2629711 143.60546875 87.09375 C148.58542637 91.43747067 153.26556903 96.07950431 157.93579102 100.75048828 C159.42641615 102.23893237 160.92487017 103.71917277 162.42382812 105.19921875 C168.73361945 111.47258954 174.45878994 118.02680778 180 125 C180.89887413 126.07412257 181.80261355 127.14422832 182.71484375 128.20703125 C188.94102586 135.50556107 194.56943603 143.09830747 200 151 C200.41781738 151.6074707 200.83563477 152.21494141 201.26611328 152.84082031 C227.24366253 190.80262564 246.22049309 232.16726585 260 276 C260.36665771 277.16015625 260.36665771 277.16015625 260.74072266 278.34375 C274.16707717 321.21621489 284 370.85394183 284 416 C268.16 416 252.32 416 236 416 C235.608125 411.276875 235.21625 406.55375 234.8125 401.6875 C232.45404627 375.10615055 228.66181073 348.9473842 222.66699219 322.93115234 C222.07509764 320.3300228 221.51535536 317.72582554 220.9765625 315.11328125 C207.9405558 252.33915274 178.66368594 190.06013431 136 142 C134.87460057 140.68784247 133.74953689 139.37539681 132.625 138.0625 C123.90477568 128.16962937 114.96781929 118.64879462 105 110 C104.26136719 109.31164062 103.52273438 108.62328125 102.76171875 107.9140625 C94.97974063 100.66832153 86.52053977 94.34017284 78 88 C77.3910791 87.54447754 76.7821582 87.08895508 76.15478516 86.61962891 C54.50786801 70.49906395 30.51617891 58.06557435 6.37158203 46.16992188 C4.24416946 45.1204509 2.12174901 44.06087451 0 43 C0 28.81 0 14.62 0 0 Z " fill="#36B5FD" transform="translate(939,402)"/>
<path d="M0 0 C15.51 0 31.02 0 47 0 C47 13.52462908 47 13.52462908 46.30078125 18.671875 C46.14601318 19.81906006 45.99124512 20.96624512 45.83178711 22.14819336 C45.66042236 23.33678955 45.48905762 24.52538574 45.3125 25.75 C45.13533447 27.00627197 44.95816895 28.26254395 44.77563477 29.55688477 C43.15657953 40.64947806 40.99356028 51.58609139 38.55078125 62.5234375 C38.07125868 64.67958864 37.60745632 66.83778357 37.15625 69 C36.45826014 72.33821238 35.73268553 75.66925117 35 79 C34.62681641 80.76537109 34.62681641 80.76537109 34.24609375 82.56640625 C27.47978792 113.60461497 16.61646733 143.91270786 4 173 C3.60055176 173.93199219 3.20110352 174.86398437 2.78955078 175.82421875 C-3.51115712 190.46478214 -10.90250753 204.2789698 -19 218 C-19.47050781 218.80421387 -19.94101563 219.60842773 -20.42578125 220.43701172 C-30.54223898 237.67070358 -41.96560987 253.9829521 -54.68310547 269.39501953 C-55.88861694 270.8642506 -57.07242594 272.35121951 -58.25390625 273.83984375 C-67.79866636 285.810344 -78.58195937 296.66516059 -89.375 307.5 C-90.20684814 308.336521 -91.03869629 309.17304199 -91.89575195 310.03491211 C-96.76960848 314.89609027 -101.76219031 319.53482011 -107 324 C-108.02117879 324.88892622 -109.04203644 325.77822155 -110.0625 326.66796875 C-131.06338687 344.68069751 -154.05351902 360.18788241 -178 374 C-179.1454126 374.67144043 -179.1454126 374.67144043 -180.31396484 375.35644531 C-191.3715849 381.8171302 -202.78190966 387.34514459 -214.4375 392.625 C-215.4672142 393.09326202 -215.4672142 393.09326202 -216.51773071 393.57098389 C-218.48664426 394.46315199 -220.45917534 395.34665347 -222.43359375 396.2265625 C-223.57884521 396.73783691 -224.72409668 397.24911133 -225.90405273 397.77587891 C-229 399 -229 399 -234 400 C-234 385.48 -234 370.96 -234 356 C-227.73 353.03 -221.46 350.06 -215 347 C-211.60869661 345.24400062 -208.26267973 343.49104784 -204.9375 341.625 C-203.70809692 340.94038696 -203.70809692 340.94038696 -202.45385742 340.24194336 C-177.81578058 326.41307374 -153.96604362 310.50403707 -133.29296875 291.14453125 C-131.30162808 289.2821019 -129.26948244 287.50899146 -127.1875 285.75 C-118.16699172 277.90364879 -109.63940156 269.19198201 -102 260 C-101.24589844 259.11183594 -100.49179688 258.22367188 -99.71484375 257.30859375 C-88.08774984 243.52500638 -77.78097527 229.14825139 -68 214 C-67.5786377 213.34837891 -67.15727539 212.69675781 -66.72314453 212.02539062 C-48.60699898 183.69975567 -35.90642503 152.65885707 -25 121 C-24.46811433 119.484141 -23.93566685 117.96847886 -23.40234375 116.453125 C-20.63263054 108.4234977 -18.49254314 100.35231698 -16.52832031 92.09741211 C-15.93780063 89.75307081 -15.26763837 87.43726849 -14.6015625 85.11328125 C-12.66906015 78.0781992 -11.31675525 70.93952419 -9.94775391 63.77807617 C-9.50526059 61.46499907 -9.05591269 59.15333731 -8.60546875 56.84179688 C-5.68214561 41.75164633 -3.04351782 26.65325448 -1.3125 11.375 C-0.879375 7.62125 -0.44625 3.8675 0 0 Z " fill="#36B6FD" transform="translate(1173,952)"/>
<path d="M0 0 C8.6315625 -0.12375 8.6315625 -0.12375 17.4375 -0.25 C19.23501709 -0.28641602 21.03253418 -0.32283203 22.88452148 -0.36035156 C32.76292515 -0.47751963 40.26136078 -0.14630932 48 6.625 C51.79658691 11.13344696 51.4831168 15.29043785 51 21 C49.32647044 25.75634717 47.09982641 28.1190409 43 31 C43.92232422 31.52787109 43.92232422 31.52787109 44.86328125 32.06640625 C50.41234741 35.4560272 53.32456908 37.63336251 55 44 C55.74908583 49.88567437 54.36477025 54.21848438 51 59 C44.42867885 64.54911564 37.26054684 65.30297648 29.00390625 65.1953125 C28.26394409 65.19329834 27.52398193 65.19128418 26.76159668 65.18920898 C24.02850033 65.17883777 21.29549316 65.15091602 18.5625 65.125 C12.436875 65.08375 6.31125 65.0425 0 65 C0 43.55 0 22.1 0 0 Z " fill="#34AFF3" transform="translate(1415,1662)"/>
<path d="M0 0 C6 0 6 0 7.984375 1.51171875 C8.56703125 2.22972656 9.1496875 2.94773437 9.75 3.6875 C10.43191406 4.51507812 11.11382813 5.34265625 11.81640625 6.1953125 C17.41617566 13.38786069 17.41617566 13.38786069 19.93652344 16.70776367 C23.84169633 21.84564491 27.90285105 26.8481529 32.0065918 31.82836914 C37.16084502 38.11333925 42.03325104 44.54322635 47 51 C47.33 34.17 47.66 17.34 48 0 C50.31 0 52.62 0 55 0 C55 21.45 55 42.9 55 65 C49 65 49 65 47.12109375 63.62890625 C46.28771484 62.60603516 46.28771484 62.60603516 45.4375 61.5625 C44.75816406 60.73878906 44.07882812 59.91507813 43.37890625 59.06640625 C39.96502971 54.66592499 36.57426248 50.24850894 33.21630859 45.80517578 C28.58574103 39.69549167 23.76387965 33.76422734 18.84521484 27.88476562 C18.29945801 27.23056641 17.75370117 26.57636719 17.19140625 25.90234375 C16.71904541 25.34023193 16.24668457 24.77812012 15.76000977 24.19897461 C13.09065072 20.8638495 10.5630984 17.41746453 8 14 C7.67 30.83 7.34 47.66 7 65 C4.69 65 2.38 65 0 65 C0 43.55 0 22.1 0 0 Z " fill="#34AFF4" transform="translate(1166,1662)"/>
<path d="M0 0 C5.383125 -0.0825 10.76625 -0.165 16.3125 -0.25 C17.98739502 -0.28641602 19.66229004 -0.32283203 21.38793945 -0.36035156 C32.59223783 -0.50225577 42.21557655 0.93126845 51.21484375 8.23046875 C57.85226762 14.80979701 61.26837198 22.33622266 61.375 31.6875 C61.2013326 41.38222731 58.76582948 49.1989298 51.98828125 56.28125 C44.42395882 62.82015348 35.79103653 65.34054937 25.87890625 65.1953125 C25.2175769 65.19329834 24.55624756 65.19128418 23.87487793 65.18920898 C21.43734664 65.17885497 18.99991532 65.15093361 16.5625 65.125 C11.096875 65.08375 5.63125 65.0425 0 65 C0 43.55 0 22.1 0 0 Z M7 6 C7 23.49 7 40.98 7 59 C29.31261546 60.62258353 29.31261546 60.62258353 48 51 C54.21675289 42.65178898 54.87175992 35.12748257 54 25 C51.81279567 17.18517804 45.9020376 11.92468805 39 8 C28.49379854 5.0298575 28.49379854 5.0298575 7 6 Z " fill="#35B1F6" transform="translate(871,1662)"/>
<path d="M0 0 C2.31 0 4.62 0 7 0 C7 9.57 7 19.14 7 29 C20.53 29 34.06 29 48 29 C48 19.43 48 9.86 48 0 C50.31 0 52.62 0 55 0 C55 21.45 55 42.9 55 65 C52.69 65 50.38 65 48 65 C48 55.1 48 45.2 48 35 C34.47 35 20.94 35 7 35 C7 44.9 7 54.8 7 65 C4.69 65 2.38 65 0 65 C0 43.55 0 22.1 0 0 Z " fill="#35B0F5" transform="translate(1266,1662)"/>
<path d="M0 0 C2.31 0 4.62 0 7 0 C7 9.57 7 19.14 7 29 C20.2 29 33.4 29 47 29 C47 19.43 47 9.86 47 0 C49.31 0 51.62 0 54 0 C54 21.45 54 42.9 54 65 C51.69 65 49.38 65 47 65 C47 55.1 47 45.2 47 35 C33.8 35 20.6 35 7 35 C7 44.9 7 54.8 7 65 C4.69 65 2.38 65 0 65 C0 43.55 0 22.1 0 0 Z " fill="#35B1F7" transform="translate(709,1662)"/>
<path d="M0 0 C14.85 0 29.7 0 45 0 C45 1.98 45 3.96 45 6 C32.46 6 19.92 6 7 6 C7 13.59 7 21.18 7 29 C18.22 29 29.44 29 41 29 C41 30.98 41 32.96 41 35 C29.78 35 18.56 35 7 35 C7 42.92 7 50.84 7 59 C19.87 59 32.74 59 46 59 C46 60.98 46 62.96 46 65 C30.82 65 15.64 65 0 65 C0 43.55 0 22.1 0 0 Z " fill="#35B2F8" transform="translate(947,1662)"/>
<path d="M0 0 C14.85 0 29.7 0 45 0 C45 1.98 45 3.96 45 6 C32.46 6 19.92 6 7 6 C7 13.59 7 21.18 7 29 C18.22 29 29.44 29 41 29 C41 30.98 41 32.96 41 35 C29.78 35 18.56 35 7 35 C7 42.92 7 50.84 7 59 C19.87 59 32.74 59 46 59 C46 60.98 46 62.96 46 65 C30.82 65 15.64 65 0 65 C0 43.55 0 22.1 0 0 Z " fill="#35B2F8" transform="translate(784,1662)"/>
<path d="M0 0 C1.30396729 0.00821777 1.30396729 0.00821777 2.63427734 0.01660156 C10.08815575 0.25763015 16.24348936 1.84347114 22.1875 6.625 C23.4921875 8.828125 23.4921875 8.828125 24.1875 10.625 C23.1975 11.615 22.2075 12.605 21.1875 13.625 C20.61644531 13.33882812 20.04539062 13.05265625 19.45703125 12.7578125 C18.70808594 12.38398437 17.95914062 12.01015625 17.1875 11.625 C16.17236328 11.09519531 16.17236328 11.09519531 15.13671875 10.5546875 C7.20337225 6.8551995 -1.89482046 5.85691282 -10.375 8.390625 C-12.34021169 9.32856694 -14.04224316 10.3624228 -15.8125 11.625 C-16.699375 12.16125 -17.58625 12.6975 -18.5 13.25 C-24.21267124 19.11706776 -26.14781663 25.11196724 -26.375 33.25 C-26.09139886 41.064787 -24.47528365 45.54177683 -19.4375 51.375 C-12.8589718 57.01373845 -8.11583751 58.81651564 0.4375 58.875 C1.17613281 58.895625 1.91476562 58.91625 2.67578125 58.9375 C3.40667969 58.94265625 4.13757812 58.9478125 4.890625 58.953125 C5.87530762 58.96714355 5.87530762 58.96714355 6.87988281 58.98144531 C10.08422077 58.58453581 10.08422077 58.58453581 16.1875 55.625 C16.5175 48.035 16.8475 40.445 17.1875 32.625 C19.4975 32.625 21.8075 32.625 24.1875 32.625 C24.36165915 36.87448329 24.46831127 41.12305155 24.5625 45.375 C24.61277344 46.5815625 24.66304687 47.788125 24.71484375 49.03125 C24.86295913 57.9181728 24.86295913 57.9181728 21.6640625 61.265625 C20.51679687 61.71421875 19.36953125 62.1628125 18.1875 62.625 C17.58180176 62.90947998 16.97610352 63.19395996 16.35205078 63.48706055 C7.40821639 67.43859274 -4.2079266 67.1923807 -13.5 64.59375 C-22.21090696 60.59384374 -28.53565781 54.32574581 -32.3125 45.5 C-35.14807024 36.36742017 -35.35617801 26.97048881 -31.375 18.1875 C-24.4865149 6.17307645 -13.75339682 -0.17608617 0 0 Z " fill="#34AEF3" transform="translate(1122.8125,1661.375)"/>
<path d="M0 0 C2.31 0 4.62 0 7 0 C7.01458252 1.25546631 7.02916504 2.51093262 7.04418945 3.80444336 C7.102489 8.49564024 7.17971859 13.18637294 7.26245117 17.87719727 C7.29555228 19.90120874 7.32362957 21.92530924 7.34643555 23.94946289 C7.38025537 26.87163973 7.43258341 29.79301158 7.48828125 32.71484375 C7.49467117 33.60896469 7.5010611 34.50308563 7.50764465 35.42430115 C7.65090844 41.6502444 8.12261215 48.77284967 12.45137024 53.62779236 C18.83784898 59.0671897 24.89196767 58.61343666 33 58 C37.13640039 57.01003832 39.9001323 55.60303298 42.33203125 52.05859375 C44.58684719 47.73221547 46.10463443 43.61709428 46.20532227 38.7121582 C46.22526749 37.85149246 46.24521271 36.99082672 46.26576233 36.1040802 C46.28247482 35.17899155 46.29918732 34.25390289 46.31640625 33.30078125 C46.33718735 32.35059616 46.35796844 31.40041107 46.37937927 30.4214325 C46.44478052 27.38519544 46.50371604 24.34887169 46.5625 21.3125 C46.60569417 19.25454831 46.64930876 17.19660541 46.69335938 15.13867188 C46.80045231 10.09253684 46.90174646 5.04631457 47 0 C48.98 0 50.96 0 53 0 C53.12757048 6.51020197 53.21467172 13.02007749 53.2746582 19.53125 C53.29968484 21.74263555 53.3337169 23.95393937 53.37719727 26.16503906 C53.43837176 29.35762791 53.46632914 32.54911613 53.48828125 35.7421875 C53.51408768 36.71864227 53.5398941 37.69509705 53.56648254 38.70114136 C53.56961081 46.48935299 51.59076753 53.14462417 46.1855011 58.94821167 C38.87371727 65.67994316 31.19356519 65.67800158 21.69921875 65.4375 C15.67392685 65.05532093 11.34370366 63.24457349 7 59 C0.59195702 51.41152805 -0.30207476 43.27193867 -0.1953125 33.69140625 C-0.1924826 32.72468491 -0.18965271 31.75796356 -0.18673706 30.76194763 C-0.17560407 27.69533548 -0.15051224 24.62902285 -0.125 21.5625 C-0.11496131 19.47461361 -0.10583701 17.38672262 -0.09765625 15.29882812 C-0.07568727 10.19910456 -0.04120507 5.09960295 0 0 Z " fill="#35B2F8" transform="translate(1341,1662)"/>
<path d="M0 0 C1.87109375 1.0703125 1.87109375 1.0703125 2.87109375 3.0703125 C1.93359375 5.1953125 1.93359375 5.1953125 0.87109375 7.0703125 C-0.24265625 6.5753125 -1.35640625 6.0803125 -2.50390625 5.5703125 C-7.43720533 3.92587947 -12.16328832 3.69964118 -17.31640625 3.6328125 C-18.08839355 3.61089844 -18.86038086 3.58898438 -19.65576172 3.56640625 C-24.92674819 3.58457815 -27.95344717 4.58318727 -32.12890625 8.0703125 C-33.69361858 11.19973715 -33.82592583 14.68113473 -33.12890625 18.0703125 C-30.56633924 21.24882533 -28.21244896 22.71607528 -24.37890625 24.0078125 C-23.42242188 24.33652344 -22.4659375 24.66523437 -21.48046875 25.00390625 C-19.00128264 25.79273819 -16.52137708 26.55423123 -14.02734375 27.29296875 C-13.32061523 27.5051001 -12.61388672 27.71723145 -11.88574219 27.93579102 C-10.49391198 28.35005656 -9.098774 28.75340997 -7.70019531 29.14428711 C-2.11592786 30.79506523 1.51465426 32.9654926 4.68359375 37.8828125 C6.61268494 43.06089937 6.50987665 47.13827915 4.37109375 52.1953125 C1.56840929 57.38733587 -3.0320101 59.52186442 -8.12890625 62.0703125 C-11.47606631 62.3647781 -14.83280915 62.34842413 -18.19140625 62.3828125 C-19.5671582 62.42631836 -19.5671582 62.42631836 -20.97070312 62.47070312 C-29.07701334 62.54538919 -35.91909684 60.47014677 -42.12890625 55.0703125 C-41.79890625 53.4203125 -41.46890625 51.7703125 -41.12890625 50.0703125 C-36.96921249 50.0703125 -34.31225095 51.93980181 -30.69921875 53.87890625 C-23.93567056 57.01398558 -16.32991906 56.9226403 -9.25390625 54.8828125 C-6.31343946 53.78462769 -5.20589494 53.15663315 -3.06640625 50.7578125 C-1.93302069 47.5087739 -1.55991812 45.48424125 -2.12890625 42.0703125 C-6.16537501 35.79136109 -13.29418897 34.93989884 -20.12890625 33.0703125 C-28.01495937 30.89879063 -34.84681275 28.6693115 -40.12890625 22.0703125 C-41.60557875 17.89200054 -41.66164878 13.43880127 -41.12890625 9.0703125 C-38.66521578 3.94583632 -34.96104231 0.8843871 -30.12890625 -1.9296875 C-20.85271359 -5.02175172 -8.87669982 -3.64795883 0 0 Z " fill="#34AFF4" transform="translate(1046.12890625,1664.9296875)"/>
<path d="M0 0 C3.98398634 -0.06930904 7.96641389 -0.12890491 11.95068359 -0.16479492 C13.96336248 -0.18709408 15.97584584 -0.22523653 17.98828125 -0.26367188 C33.24591206 -0.37867914 33.24591206 -0.37867914 39.5 5.25 C41.43935576 8.80548555 41.50011751 10.99905992 41 15 C39.07747923 19.5926885 36.29051248 21.59731301 32 24 C28.38134766 24.45410156 28.38134766 24.45410156 24.4140625 24.390625 C23.71227875 24.38496521 23.010495 24.37930542 22.28744507 24.37347412 C20.06590913 24.35124483 17.84604077 24.30108056 15.625 24.25 C14.11070053 24.22991731 12.59637554 24.21166964 11.08203125 24.1953125 C7.38687587 24.15483982 3.69528384 24.07654213 0 24 C0 16.08 0 8.16 0 0 Z " fill="#000203" transform="translate(1422,1697)"/>
<path d="M0 0 C1.2065625 0.0309375 1.2065625 0.0309375 2.4375 0.0625 C4.48303668 4.41797294 6.52767314 8.77386699 8.5715332 13.13012695 C9.26465483 14.60712657 9.95800783 16.08401763 10.65161133 17.56079102 C12.62334949 21.75909849 14.58984856 25.95978555 16.54974365 30.16363525 C17.37537276 31.92961307 18.20815047 33.69224393 19.04150391 35.45458984 C19.72672119 36.9214624 19.72672119 36.9214624 20.42578125 38.41796875 C20.81934814 39.25352295 21.21291504 40.08907715 21.6184082 40.94995117 C22.4375 43.0625 22.4375 43.0625 22.4375 46.0625 C20.7875 46.0625 19.1375 46.0625 17.4375 46.0625 C15.7875 42.4325 14.1375 38.8025 12.4375 35.0625 C-0.4325 34.5675 -0.4325 34.5675 -13.5625 34.0625 C-14.5525 37.0325 -15.5425 40.0025 -16.5625 43.0625 C-17.2225 44.0525 -17.8825 45.0425 -18.5625 46.0625 C-21.1875 46.25 -21.1875 46.25 -23.5625 46.0625 C-21.957442 40.81432382 -19.77059038 35.94628595 -17.46484375 30.98046875 C-17.07051651 30.12568436 -16.67618927 29.27089996 -16.26991272 28.39021301 C-15.44017571 26.59350216 -14.60888323 24.79750891 -13.77612305 23.00219727 C-12.497024 20.24358171 -11.22375166 17.48233119 -9.95117188 14.72070312 C-9.14357208 12.97379976 -8.33564109 11.22704947 -7.52734375 9.48046875 C-7.14505112 8.65137497 -6.76275848 7.82228119 -6.36888123 6.96806335 C-3.16639309 0.0772291 -3.16639309 0.0772291 0 0 Z " fill="#ACD5EF" transform="translate(907.5625,1780.9375)"/>
<path d="M0 0 C1.2065625 0.0309375 1.2065625 0.0309375 2.4375 0.0625 C7.18746808 9.37338725 11.66726016 18.77310058 15.94702148 28.30834961 C16.8952631 30.42012685 17.84872661 32.52949409 18.80273438 34.63867188 C19.40915468 35.98423961 20.01528622 37.32993752 20.62109375 38.67578125 C21.04750404 39.61929192 21.04750404 39.61929192 21.48252869 40.5818634 C23.4375 44.94688494 23.4375 44.94688494 23.4375 46.0625 C21.4575 46.0625 19.4775 46.0625 17.4375 46.0625 C16.76395501 44.62820999 16.09890299 43.18992943 15.4375 41.75 C15.06625 40.94949219 14.695 40.14898438 14.3125 39.32421875 C13.4375 37.0625 13.4375 37.0625 13.4375 34.0625 C4.5275 34.0625 -4.3825 34.0625 -13.5625 34.0625 C-14.5525 37.0325 -15.5425 40.0025 -16.5625 43.0625 C-17.2225 44.0525 -17.8825 45.0425 -18.5625 46.0625 C-21.1875 46.25 -21.1875 46.25 -23.5625 46.0625 C-19.87004291 36.97734325 -15.89684727 28.03603552 -11.83154297 19.11303711 C-10.79735077 16.84172904 -9.76768207 14.56840488 -8.73828125 12.29492188 C-8.08099624 10.84883691 -7.42345409 9.40286879 -6.765625 7.95703125 C-6.45836487 7.27800247 -6.15110474 6.59897369 -5.83453369 5.89936829 C-3.17485115 0.07743539 -3.17485115 0.07743539 0 0 Z " fill="#ACD5EF" transform="translate(1007.5625,1780.9375)"/>
<path d="M0 0 C4.54202541 -0.08100045 9.08260304 -0.14050969 13.625 -0.1875 C15.55279297 -0.22520508 15.55279297 -0.22520508 17.51953125 -0.26367188 C19.38544922 -0.27817383 19.38544922 -0.27817383 21.2890625 -0.29296875 C23.00150146 -0.31653442 23.00150146 -0.31653442 24.74853516 -0.34057617 C29.20225073 0.1259303 32.49913877 1.6992536 35.875 4.625 C37.65052846 8.37333785 37.65320181 11.9356332 37 16 C34.63577238 20.11550734 32.44373239 21.58236277 28 23 C24.86206055 23.22705078 24.86206055 23.22705078 21.38671875 23.1953125 C20.13955078 23.18886719 18.89238281 23.18242188 17.60742188 23.17578125 C16.31384766 23.15902344 15.02027344 23.14226562 13.6875 23.125 C12.37458984 23.11597656 11.06167969 23.10695313 9.70898438 23.09765625 C6.47257813 23.07411875 3.23626581 23.03824871 0 23 C0 15.41 0 7.82 0 0 Z " fill="#000203" transform="translate(1422,1668)"/>
<path d="M0 0 C5 1 5 1 6.78930664 3.20556641 C7.5916272 4.63908447 7.5916272 4.63908447 8.41015625 6.1015625 C9.30637695 7.67357422 9.30637695 7.67357422 10.22070312 9.27734375 C10.82849609 10.38207031 11.43628906 11.48679687 12.0625 12.625 C12.67416016 13.70652344 13.28582031 14.78804687 13.91601562 15.90234375 C16.05370152 19.68778104 18.17298736 23.48257517 20.25341797 27.29980469 C22.00279341 30.7485912 22.00279341 30.7485912 25 33 C25.25378418 32.31139893 25.50756836 31.62279785 25.76904297 30.91333008 C27.17420798 27.58769857 28.88994292 24.50496516 30.6953125 21.38671875 C31.04761932 20.77230423 31.39992615 20.15788971 31.76290894 19.52485657 C32.8805647 17.57730491 34.00270362 15.63238041 35.125 13.6875 C35.88701711 12.36149954 36.648739 11.03532938 37.41015625 9.70898438 C39.27002521 6.4706854 41.1339218 3.23472577 43 0 C44.65 0 46.3 0 48 0 C48 15.18 48 30.36 48 46 C46.35 46 44.7 46 43 46 C42.67 34.78 42.34 23.56 42 12 C37.52492954 19.71665167 37.52492954 19.71665167 33.05541992 27.43652344 C32.49443604 28.40106445 31.93345215 29.36560547 31.35546875 30.359375 C30.78465576 31.34389648 30.21384277 32.32841797 29.62573242 33.34277344 C26.73851748 38.06186751 26.73851748 38.06186751 25 40 C24.01 40 23.02 40 22 40 C20.40600586 37.84448242 20.40600586 37.84448242 18.71484375 34.85546875 C18.10189453 33.78619141 17.48894531 32.71691406 16.85742188 31.61523438 C15.90706055 29.91850586 15.90706055 29.91850586 14.9375 28.1875 C13.67627033 25.97237771 12.41457253 23.75752188 11.15234375 21.54296875 C10.3169104 20.0583313 10.3169104 20.0583313 9.46459961 18.54370117 C8.37728421 16.65526325 7.20874411 14.81311617 6 13 C5.67 23.89 5.34 34.78 5 46 C3.35 46 1.7 46 0 46 C0 30.82 0 15.64 0 0 Z " fill="#ABD4EE" transform="translate(1133,1781)"/>
<path d="M0 0 C17.49 0 34.98 0 53 0 C53 1.98 53 3.96 53 6 C45.41 6 37.82 6 30 6 C30 25.47 30 44.94 30 65 C27.69 65 25.38 65 23 65 C23 45.53 23 26.06 23 6 C15.41 6 7.82 6 0 6 C0 4.02 0 2.04 0 0 Z " fill="#35B3F9" transform="translate(645,1662)"/>
<path d="M0 0 C5 1 5 1 6.98876953 3.63623047 C7.61380371 4.78494629 8.23883789 5.93366211 8.8828125 7.1171875 C9.22375946 7.73014679 9.56470642 8.34310608 9.91598511 8.97463989 C11.0018142 10.93302968 12.06417484 12.90297173 13.125 14.875 C14.19692675 16.83739127 15.27359891 18.79699306 16.35543823 20.75393677 C17.33616032 22.5325789 18.30343659 24.31861515 19.27001953 26.10498047 C20.70065332 28.49906112 21.91150786 30.19488318 24 32 C24.54358154 31.07888428 24.54358154 31.07888428 25.09814453 30.13916016 C26.7733917 27.30088742 28.44919322 24.46294236 30.125 21.625 C30.69476562 20.65949219 31.26453125 19.69398437 31.8515625 18.69921875 C32.99721035 16.75942863 34.14728003 14.82224326 35.30175781 12.88769531 C36.43825414 10.95519408 37.5469859 9.00610661 38.62792969 7.04199219 C39.14000977 6.12836914 39.65208984 5.21474609 40.1796875 4.2734375 C40.62812012 3.45020996 41.07655273 2.62698242 41.53857422 1.77880859 C42.26197998 0.89829834 42.26197998 0.89829834 43 0 C44.32 0 45.64 0 47 0 C47 15.18 47 30.36 47 46 C45.68 46 44.36 46 43 46 C42.505 28.675 42.505 28.675 42 11 C37.899236 18.29760251 37.899236 18.29760251 33.80371094 25.59814453 C31.02816896 30.52313391 28.23967602 35.36501797 25 40 C23.22729492 39.85717773 23.22729492 39.85717773 21 39 C19.18481445 36.53149414 19.18481445 36.53149414 17.36328125 33.28515625 C17.03837204 32.71421738 16.71346283 32.1432785 16.37870789 31.55503845 C15.34438131 29.73079964 14.32842882 27.89703623 13.3125 26.0625 C12.61771045 24.83071728 11.92175966 23.59958878 11.22460938 22.36914062 C6.52928649 14.05857298 6.52928649 14.05857298 5 11 C4.67 22.55 4.34 34.1 4 46 C2.68 46 1.36 46 0 46 C0 30.82 0 15.64 0 0 Z " fill="#B1DCF6" transform="translate(829,1781)"/>
<path d="M0 0 C5 0 5 0 6.53881836 1.29077148 C7.18282593 2.19678101 7.18282593 2.19678101 7.83984375 3.12109375 C8.58862793 4.1419104 8.58862793 4.1419104 9.35253906 5.18334961 C9.87557617 5.92721924 10.39861328 6.67108887 10.9375 7.4375 C12.07368246 8.99188373 13.21311657 10.54389488 14.35546875 12.09375 C14.94634277 12.89941406 15.5372168 13.70507812 16.14599609 14.53515625 C19.78823019 19.37739953 23.70587948 23.99489644 27.59350586 28.64038086 C28.43667358 29.65177124 28.43667358 29.65177124 29.296875 30.68359375 C29.79541992 31.27712646 30.29396484 31.87065918 30.80761719 32.48217773 C32 34 32 34 33 36 C33.33 24.12 33.66 12.24 34 0 C35.65 0 37.3 0 39 0 C39 15.18 39 30.36 39 46 C34 46 34 46 32.4453125 44.80102539 C32.00960938 44.23891357 31.57390625 43.67680176 31.125 43.09765625 C30.62073486 42.46239014 30.11646973 41.82712402 29.59692383 41.17260742 C28.80644653 40.12810425 28.80644653 40.12810425 28 39.0625 C27.16601685 37.99769409 27.16601685 37.99769409 26.31518555 36.91137695 C24.52733328 34.61958653 22.76304031 32.31091547 21 30 C19.77812174 28.41866938 18.5554691 26.83793681 17.33203125 25.2578125 C8.78842587 14.1826388 8.78842587 14.1826388 6 10 C5.67 21.88 5.34 33.76 5 46 C3.35 46 1.7 46 0 46 C0 30.82 0 15.64 0 0 Z " fill="#ACD5EF" transform="translate(1239,1781)"/>
<path d="M0 0 C5 0 5 0 6.53881836 1.29077148 C7.18282593 2.19678101 7.18282593 2.19678101 7.83984375 3.12109375 C8.58862793 4.1419104 8.58862793 4.1419104 9.35253906 5.18334961 C9.87557617 5.92721924 10.39861328 6.67108887 10.9375 7.4375 C12.07368246 8.99188373 13.21311657 10.54389488 14.35546875 12.09375 C14.94634277 12.89941406 15.5372168 13.70507812 16.14599609 14.53515625 C19.78823019 19.37739953 23.70587948 23.99489644 27.59350586 28.64038086 C28.43667358 29.65177124 28.43667358 29.65177124 29.296875 30.68359375 C29.79541992 31.27712646 30.29396484 31.87065918 30.80761719 32.48217773 C32 34 32 34 33 36 C33.33 24.12 33.66 12.24 34 0 C35.65 0 37.3 0 39 0 C39 15.18 39 30.36 39 46 C34 46 34 46 32.4453125 44.80102539 C32.00960937 44.23891357 31.57390625 43.67680176 31.125 43.09765625 C30.62073486 42.46239014 30.11646973 41.82712402 29.59692383 41.17260742 C28.80644653 40.12810425 28.80644653 40.12810425 28 39.0625 C27.16601685 37.99769409 27.16601685 37.99769409 26.31518555 36.91137695 C24.52733328 34.61958653 22.76304031 32.31091547 21 30 C19.77812174 28.41866938 18.5554691 26.83793681 17.33203125 25.2578125 C8.78842587 14.1826388 8.78842587 14.1826388 6 10 C5.67 21.88 5.34 33.76 5 46 C3.35 46 1.7 46 0 46 C0 30.82 0 15.64 0 0 Z " fill="#ACD5EF" transform="translate(938,1781)"/>
<path d="M0 0 C10.56 0 21.12 0 32 0 C32 1.32 32 2.64 32 4 C23.09 4 14.18 4 5 4 C5 9.28 5 14.56 5 20 C12.92 20 20.84 20 29 20 C29 21.65 29 23.3 29 25 C21.08 25 13.16 25 5 25 C5 30.61 5 36.22 5 42 C14.24 42 23.48 42 33 42 C33 43.32 33 44.64 33 46 C22.11 46 11.22 46 0 46 C0 30.82 0 15.64 0 0 Z " fill="#ACD5EE" transform="translate(1089,1781)"/>
<path d="M0 0 C3.2511251 2.34081007 3.52809841 2.60736976 4.125 6.25 C1.125 7.25 1.125 7.25 -0.6015625 6.47265625 C-1.22804688 6.08980469 -1.85453125 5.70695312 -2.5 5.3125 C-7.76493423 2.53539184 -12.29132949 2.47010048 -18.046875 3.72265625 C-23.28402771 5.36664967 -25.76781628 7.77199993 -28.875 12.25 C-29.5246875 13.178125 -29.5246875 13.178125 -30.1875 14.125 C-31.98851272 19.69176658 -31.11819296 25.13697764 -28.92578125 30.42578125 C-26.47050662 34.68828405 -22.35243033 37.37263589 -17.875 39.25 C-11.59934018 39.97575658 -5.8813358 39.02965505 0.125 37.25 C0.125 31.97 0.125 26.69 0.125 21.25 C1.775 21.25 3.425 21.25 5.125 21.25 C5.125 27.19 5.125 33.13 5.125 39.25 C-2.91737909 44.99455649 -10.35875532 45.29965862 -19.875 44.25 C-26.14885395 42.64615764 -30.38227367 38.59245678 -33.875 33.25 C-36.98160659 27.40020117 -37.89619789 21.68370085 -36.40625 15.21484375 C-34.2871798 8.66843046 -30.30827986 3.449831 -24.4375 -0.1875 C-17.19660137 -3.41032771 -7.18912131 -3.27014182 0 0 Z " fill="#AAD3EC" transform="translate(1070.875,1782.75)"/>
<path d="M0 0 C10.56 0 21.12 0 32 0 C32 1.32 32 2.64 32 4 C23.09 4 14.18 4 5 4 C5 9.61 5 15.22 5 21 C12.92 21 20.84 21 29 21 C29 22.32 29 23.64 29 25 C21.08 25 13.16 25 5 25 C5 30.61 5 36.22 5 42 C14.24 42 23.48 42 33 42 C33 43.32 33 44.64 33 46 C22.11 46 11.22 46 0 46 C0 30.82 0 15.64 0 0 Z " fill="#ADD7F0" transform="translate(1195,1781)"/>
<path d="M0 0 C1.98 0 3.96 0 6 0 C6 21.45 6 42.9 6 65 C4.02 65 2.04 65 0 65 C0 43.55 0 22.1 0 0 Z " fill="#36B6FE" transform="translate(1067,1662)"/>
<path d="M0 0 C12.21 0 24.42 0 37 0 C37 1.65 37 3.3 37 5 C31.72 5 26.44 5 21 5 C21 18.53 21 32.06 21 46 C19.35 46 17.7 46 16 46 C16 32.14 16 18.28 16 4 C10.72 4 5.44 4 0 4 C0 2.68 0 1.36 0 0 Z " fill="#A6CEE6" transform="translate(1286,1781)"/>
<path d="M0 0 C2.09383797 2.64551454 3.6764185 5.17592288 5.04296875 8.2578125 C5.39423828 9.04800781 5.74550781 9.83820313 6.10742188 10.65234375 C6.64206055 11.87630859 6.64206055 11.87630859 7.1875 13.125 C7.55552734 13.94871094 7.92355469 14.77242187 8.30273438 15.62109375 C11 21.73623029 11 21.73623029 11 24 C3.74 24 -3.52 24 -11 24 C-9.54534242 20.56090214 -8.08645339 17.12370866 -6.625 13.6875 C-6.2125 12.71103516 -5.8 11.73457031 -5.375 10.72851562 C-4.77558594 9.32182617 -4.77558594 9.32182617 -4.1640625 7.88671875 C-3.79748535 7.02264404 -3.4309082 6.15856934 -3.05322266 5.26831055 C-2 3 -2 3 0 0 Z " fill="#080A0C" transform="translate(907,1787)"/>
<path d="M0 0 C2.09383797 2.64551454 3.6764185 5.17592288 5.04296875 8.2578125 C5.39423828 9.04800781 5.74550781 9.83820313 6.10742188 10.65234375 C6.64206055 11.87630859 6.64206055 11.87630859 7.1875 13.125 C7.55552734 13.94871094 7.92355469 14.77242187 8.30273438 15.62109375 C11 21.73623029 11 21.73623029 11 24 C4.07 24 -2.86 24 -10 24 C-9.26825333 20.34126663 -8.65727202 17.88708371 -7.1875 14.609375 C-6.83429687 13.81789063 -6.48109375 13.02640625 -6.1171875 12.2109375 C-5.56417969 10.99277344 -5.56417969 10.99277344 -5 9.75 C-4.44699219 8.50863281 -4.44699219 8.50863281 -3.8828125 7.2421875 C-1.14332217 1.14332217 -1.14332217 1.14332217 0 0 Z " fill="#080A0B" transform="translate(1007,1787)"/>
</svg>
